<?xml version="1.0" standalone="no"?>
<!DOCTYPE svg PUBLIC "-//W3C//DTD SVG 20010904//EN"
 "http://www.w3.org/TR/2001/REC-SVG-20010904/DTD/svg10.dtd">
<svg version="1.0" xmlns="http://www.w3.org/2000/svg"
 width="260.000000pt" height="260.000000pt" viewBox="0 0 260.000000 260.000000"
 preserveAspectRatio="xMidYMid meet">
<metadata>
Created by potrace 1.11, written by Peter Selinger 2001-2013
</metadata>
<g transform="translate(0.000000,260.000000) scale(0.100000,-0.100000)"
fill="#000000" stroke="none">
<path d="M1145 2590 c-27 -4 -63 -11 -80 -14 -16 -3 -46 -9 -65 -12 -19 -3
-77 -21 -130 -40 -572 -208 -923 -768 -857 -1372 4 -40 10 -78 12 -85 2 -6 7
-30 10 -52 8 -59 62 -210 106 -297 93 -186 254 -369 434 -496 122 -85 331
-169 504 -202 107 -20 349 -21 431 -2 25 6 58 13 73 16 97 17 261 82 371 147
214 127 376 297 494 519 48 89 104 237 116 305 3 17 8 41 11 55 43 203 23 466
-52 675 -107 298 -329 556 -605 705 -76 40 -205 95 -248 104 -14 3 -52 12 -85
20 -33 9 -78 18 -100 21 -66 10 -286 13 -340 5z"/>
</g>
</svg>
